<svg xmlns="http://www.w3.org/2000/svg" xmlns:xlink="http://www.w3.org/1999/xlink" xml:space="preserve" version="1.1" style="shape-rendering:geometricPrecision;text-rendering:geometricPrecision;image-rendering:optimizeQuality;" viewBox="0 0 60000 75000" x="0px" y="0px" fill-rule="evenodd" clip-rule="evenodd"><defs><style type="text/css">
   
    .fil0 {fill:black;fill-rule:nonzero}
   
  </style></defs><g><path class="fil0" d="M10963 16117c189,-922 610,-1925 1249,-2839 571,-817 1318,-1565 2231,-2122 188,-115 434,-55 548,133 25,41 42,85 51,130l1 0c408,2046 1255,4119 2594,6112 1242,1850 2910,3632 5046,5263 199,101 332,133 412,120 3,-10 4,-24 5,-41 6,-118 -45,-265 -139,-392 -518,-607 -1020,-1163 -1516,-1710 -2420,-2675 -4687,-5183 -5469,-9621 -6,-37 -8,-73 -4,-108 25,-1726 1978,-2873 3860,-3977 1844,-1082 3609,-2118 2909,-3398 -105,-193 -34,-435 159,-541 124,-68 268,-62 384,1 1363,707 3446,724 5277,739 2290,19 4226,35 4393,1418 870,3231 -100,6033 -1055,8791 -358,1035 -715,2063 -963,3094 -4,15 -8,30 -14,45l1 0c-20,53 -14,103 7,142 17,30 41,55 70,72 31,19 68,30 106,30 76,1 166,-37 261,-129 46,-79 137,-233 231,-392 1508,-2559 3765,-6390 2054,-11851 -66,-211 52,-434 263,-500 89,-28 181,-23 262,9 1472,479 3068,1158 4450,2094 1128,764 2112,1699 2773,2836 42,72 58,152 53,229 -53,4539 -2442,7350 -4831,10161 -1162,1367 -2324,2735 -3189,4285 -4,8 -9,16 -14,23 -113,174 -130,383 -68,534 17,43 40,77 66,97 18,14 41,22 70,22 168,0 419,-156 759,-570 13,-15 26,-29 40,-42 415,-452 788,-848 1171,-1255 3142,-3333 6909,-7329 6794,-12618 -4,-220 171,-402 391,-406 84,-2 163,23 228,66l0 -1c1130,749 2443,1757 3529,3027 1103,1290 1967,2848 2170,4677 3,24 3,48 1,72 -313,4304 -4380,7211 -8060,9841 -1116,798 -2196,1570 -3101,2331 -12,10 -25,20 -38,28l0 0c-994,656 -634,1538 278,899 543,-380 1094,-755 1656,-1138 3888,-2647 8281,-5637 10646,-10664 93,-199 330,-285 530,-192 76,36 136,92 175,159 944,1610 1646,3223 2055,4901 411,1685 526,3429 294,5292 -4,31 -11,61 -22,90 -1186,3924 -5359,5617 -9271,7204 -1361,552 -5391,2275 -5700,2629 -45,52 -77,96 -91,129 208,145 743,218 1778,143 2474,-366 5073,-1229 7476,-2526 2252,-1215 4329,-2810 5967,-4731 143,-167 395,-187 563,-44 94,81 142,195 140,310 114,4178 -351,7799 -1170,10857 -969,3613 -2435,6447 -4029,8486l1 1c-1731,2414 -3798,3873 -6025,4577 -2485,785 -5157,624 -7778,-208 -66,-21 -122,-57 -167,-103 -153,-132 -344,-273 -551,-426 -1612,-1188 -4174,-3077 -3954,-11677 -55,-436 -189,-692 -344,-793 -40,-26 -79,-38 -115,-37 -38,2 -80,19 -121,50 -157,118 -280,384 -299,791 0,9 -1,19 -2,28l1 0c-63,537 -109,1028 -157,1524 -160,1680 -324,3409 -851,5037l-3 7 1 0c-201,583 -449,1099 -737,1555 -1142,1812 -2870,2618 -4672,2846 -1765,223 -3596,-115 -4999,-599 -727,-251 -1347,-544 -1789,-822 -3275,-1786 -6496,-5497 -8347,-10206 -1561,-3972 -2153,-8661 -985,-13510 51,-214 266,-346 480,-295 78,19 145,59 196,113l0 0c1930,2028 4260,3860 6847,5114 2234,1083 4659,1734 7179,1703 23,0 45,1 67,5l0 0c142,23 270,-23 349,-104 31,-32 53,-70 63,-110 10,-38 9,-80 -5,-122 -52,-155 -241,-327 -634,-475 -7,-3 -14,-5 -20,-8l0 0c-1114,-492 -2286,-919 -3477,-1353 -3915,-1427 -8023,-2924 -10792,-6852 -56,-79 -79,-172 -71,-262 30,-1670 196,-3376 676,-5041 487,-1688 1295,-3328 2608,-4838 144,-167 396,-185 563,-41 69,60 112,138 129,220l0 0c651,3123 2112,5449 4018,7296 1921,1862 4302,3246 6764,4471 155,75 294,102 394,85 23,-4 38,-8 42,-12 2,-2 -3,0 -3,-9 33,-45 51,-174 -104,-310 -2500,-1751 -4867,-3691 -6799,-5793 -1969,-2142 -3492,-4456 -4256,-6914 -23,-73 -23,-148 -5,-217zm13566 -9586c-22,-136 71,-264 207,-285 136,-22 264,71 285,207l700 4335c374,-323 714,-653 1012,-1020 411,-506 747,-1088 994,-1833 43,-131 184,-201 314,-158 131,43 201,184 158,314 -269,808 -634,1441 -1080,1991 -382,470 -819,877 -1305,1280l761 4708c692,-598 1224,-1257 1653,-1957 497,-812 857,-1683 1166,-2583 45,-131 187,-200 317,-155 131,45 200,187 155,317 -319,928 -692,1830 -1213,2681 -501,818 -1136,1583 -1986,2269l1414 8753c894,-2214 2682,-3822 4511,-5468 2129,-1916 4317,-3884 5130,-6898 36,-133 172,-212 306,-177 133,36 212,172 177,306 -852,3157 -3095,5176 -5278,7140 -2021,1818 -3989,3589 -4675,6155l869 5377c1295,-1021 2655,-1967 4016,-2914 2641,-1837 5286,-3677 7401,-6027l0 0c715,-913 1283,-1846 1623,-2789 46,-129 189,-197 318,-150 129,46 197,189 150,318 -362,1005 -966,1993 -1721,2954l0 0 -5 6c-1831,2328 -4552,4497 -6897,6366 -2358,1879 -4324,3446 -4528,4460l790 4889c2016,-1711 4526,-2984 7006,-4241 3009,-1526 5974,-3029 7895,-5248 90,-104 247,-115 352,-25 104,90 115,247 25,352 -1247,1440 -2896,2577 -4707,3607 -1068,761 -2263,1470 -3478,2192 -2202,1307 -4473,2656 -6113,4386 1520,1100 4354,2769 7663,3302 2194,354 4599,207 6967,-942 1709,-1036 3075,-2463 4191,-3880 85,-108 242,-127 351,-42 108,85 127,242 42,351 -1741,2209 -4077,4447 -7360,5283 -980,249 -2042,373 -3197,334l57 31c2620,1412 5100,2749 8568,1751 133,-38 271,39 309,172 38,133 -39,271 -172,309 -3661,1054 -6229,-330 -8941,-1792 -359,-194 -721,-389 -1080,-575 -1430,-188 -2990,-619 -4695,-1354 642,676 1204,1371 1762,2061 1881,2327 3713,4594 8447,5755 134,32 216,167 184,301 -32,134 -167,216 -301,184 -4899,-1202 -6784,-3533 -8718,-5926 -833,-1031 -1677,-2074 -2776,-3033 -310,-157 -624,-324 -943,-500 619,893 942,1854 1271,2830 381,1132 769,2284 1654,3343 88,106 74,263 -31,352 -106,88 -263,74 -352,-31 -943,-1130 -1347,-2328 -1743,-3505 -407,-1207 -805,-2391 -1797,-3420 -48,117 -127,218 -229,300 -139,114 -322,191 -518,222 -192,30 -399,16 -589,-52 -171,-61 -331,-166 -458,-321 -31,-38 -49,-83 -54,-129l0 0 -22 -188c-631,834 -1078,1762 -1533,2709 -460,956 -928,1929 -1607,2863 -81,111 -237,136 -348,55 -111,-81 -136,-237 -55,-348 652,-896 1110,-1849 1561,-2784 124,-259 248,-516 375,-771 -1332,1259 -2808,2254 -4348,3056 -2114,1100 -4351,1837 -6506,2395 -133,35 -269,-46 -304,-179 -35,-133 46,-269 179,-304 2120,-549 4321,-1274 6400,-2356 2042,-1063 3965,-2471 5574,-4397 -10567,2439 -14347,-924 -18170,-4325 -351,-313 -703,-626 -1023,-902 -104,-90 -115,-247 -25,-352 90,-104 247,-115 352,-25 372,321 700,614 1028,906 3785,3367 7527,6696 18223,4094 41,-10 82,-9 120,1 9,-10 17,-20 26,-30l-354 -3072c-1917,-1792 -4373,-3309 -6828,-4826 -1252,-773 -2505,-1547 -3679,-2352 -2722,-1536 -5309,-3288 -7305,-5752 -87,-107 -71,-264 36,-351 107,-87 264,-71 351,36 2713,3349 6586,5375 10375,7357 2417,1264 4799,2511 6842,4074l-531 -4614c-2885,-2058 -5248,-4008 -7342,-6019 -2118,-2034 -3960,-4127 -5791,-6454 -85,-108 -66,-265 42,-351 108,-85 265,-66 351,42 1819,2312 3647,4389 5744,6403 1988,1909 4220,3763 6920,5710l-1026 -8915c-851,-911 -1739,-1644 -2627,-2377 -1852,-1528 -3703,-3056 -5250,-6165 -61,-124 -11,-273 112,-335 124,-61 273,-11 335,112 1502,3017 3311,4510 5120,6002 745,615 1491,1230 2217,1950l-717 -6226c-1591,-559 -2362,-1840 -3115,-3092l-53 -87c-71,-118 -33,-272 85,-343 118,-71 272,-33 343,85l53 87c667,1109 1350,2243 2623,2788 -275,-2390 -665,-4808 -1059,-7245zm3224 19953c-1,-3 -1,-6 -1,-9l-695 -4299 2190 19027c56,53 122,91 194,116 111,40 232,48 345,30 109,-17 208,-58 280,-116 24,-20 45,-42 61,-66l-68 -420c-1,-5 -2,-10 -3,-15l0 0 0 0 0 0 0 0 0 0 0 0 0 0 0 0 0 -1 0 0 0 0 0 0 0 0 0 -1 0 0 0 -1 0 0 0 0 0 0 0 0 0 0 0 0 0 0 0 -1 -200 -1238c-2,-10 -4,-20 -5,-30l-866 -5357c-1,-3 -1,-6 -1,-9l-1228 -7603zm6632 2172c-320,224 -641,447 -962,670 -1436,999 -2870,1996 -4210,3068l129 796c722,-1091 2411,-2436 4357,-3987 226,-180 455,-363 687,-548zm-10598 4758c1588,1012 3114,2058 4432,3220l-42 -364c-1327,-1067 -2823,-1985 -4390,-2855zm15671 10432c-209,-24 -417,-53 -622,-86 -3439,-554 -6373,-2294 -7922,-3423 -83,96 -165,193 -244,292 3422,2092 6321,3039 8788,3218zm-8999 -3744c1172,-1383 2718,-2518 4356,-3558 -1613,879 -3151,1832 -4449,2979l94 579zm-17594 -26367c-557,796 -928,1662 -1104,2462 735,2298 2182,4479 4051,6512 1819,1978 4032,3812 6378,5476 448,318 776,565 734,1218 -13,212 -94,385 -225,519 -125,127 -289,208 -476,240 -256,44 -566,-4 -875,-154l-3 -2c-2526,-1256 -4974,-2682 -6970,-4616 -1846,-1789 -3297,-4004 -4055,-6905 -940,1240 -1550,2561 -1941,3914 -448,1552 -609,3153 -643,4729 2626,3647 6573,5086 10337,6458 1212,442 2405,877 3526,1371 637,245 969,603 1089,961 66,198 70,393 24,572 -45,177 -138,337 -267,470 -241,249 -612,394 -1012,341 -2642,26 -5175,-653 -7502,-1781 -2451,-1188 -4675,-2873 -6560,-4752 -906,4421 -318,8682 1113,12322 1782,4534 4865,8097 7989,9799 11,6 22,12 33,19 391,246 954,512 1629,744 1312,453 3015,769 4639,564 1587,-200 3104,-903 4097,-2480 253,-401 474,-862 655,-1389l1 0c499,-1545 659,-3227 814,-4860 51,-537 102,-1070 156,-1538 36,-654 289,-1123 616,-1368 172,-129 366,-200 565,-209 202,-9 403,45 587,165 338,221 618,678 702,1388l-1 0c2,18 3,37 3,56 -217,8216 2144,9957 3629,11051 202,149 389,287 563,434 2447,763 4928,909 7221,184 2067,-653 3992,-2018 5615,-4280l1 1c3,-4 6,-9 10,-13 1537,-1962 2954,-4703 3895,-8215 737,-2748 1180,-5963 1161,-9638 -1581,1662 -3478,3059 -5510,4155 -2489,1344 -5184,2238 -7751,2615 -10,1 -20,2 -30,3 -1254,93 -1968,-44 -2313,-287 -263,-185 -364,-423 -342,-688 17,-213 125,-424 295,-618 614,-702 4985,-2433 6000,-2845 3737,-1516 7723,-3133 8803,-6684 215,-1756 106,-3395 -279,-4974 -335,-1374 -879,-2707 -1601,-4036 -2517,4816 -6784,7721 -10579,10305 -546,372 -1082,737 -1592,1093 -761,531 -1929,594 -2172,-427 -50,-211 -31,-439 47,-666 133,-386 449,-786 877,-1074 940,-788 2018,-1559 3133,-2356 3524,-2519 7417,-5302 7722,-9214 -191,-1632 -977,-3036 -1978,-4208 -838,-981 -1829,-1802 -2752,-2461 -225,5230 -3907,9137 -7002,12420 -422,447 -833,884 -1165,1246l-8 10c-513,626 -991,861 -1378,861 -216,0 -402,-68 -554,-184 -144,-110 -253,-259 -323,-431 -149,-367 -120,-858 133,-1257 905,-1618 2088,-3010 3270,-4401 2281,-2684 4562,-5369 4641,-9567 -595,-983 -1471,-1804 -2474,-2484 -1097,-743 -2346,-1319 -3553,-1756 1399,5397 -831,9182 -2342,11747 -58,98 -114,193 -248,424 -16,29 -35,56 -58,81 -274,294 -588,413 -879,410 -187,-2 -361,-54 -510,-143 -150,-90 -274,-216 -358,-366 -129,-230 -166,-511 -65,-795 257,-1058 616,-2094 977,-3136 917,-2648 1849,-5339 1035,-8340 -8,-26 -13,-53 -16,-80 -68,-703 -1689,-716 -3610,-732 -1604,-13 -3392,-28 -4831,-496 119,1467 -1651,2506 -3489,3584 -1685,989 -3434,2015 -3466,3290 748,4197 2934,6615 5267,9195 516,571 1040,1150 1534,1729 7,8 14,16 20,25 210,275 322,623 307,920 -9,179 -61,347 -160,483 -111,152 -269,261 -480,303 -243,49 -560,-1 -952,-202 -28,-12 -56,-28 -81,-48 -2219,-1689 -3953,-3544 -5249,-5472 -1275,-1898 -2124,-3866 -2588,-5818 -604,449 -1112,994 -1521,1578zm25051 25621c-1,3 -1,6 -1,9 -1,10 0,1 1,-9z"/></g><text x="0" y="60015" fill="#000000" font-size="5px" font-weight="bold" font-family="'Helvetica Neue', Helvetica, Arial-Unicode, Arial, Sans-serif">Created by Olenka Panasovska</text><text x="0" y="60020" fill="#000000" font-size="5px" font-weight="bold" font-family="'Helvetica Neue', Helvetica, Arial-Unicode, Arial, Sans-serif">from the Noun Project</text></svg>