<svg xmlns="http://www.w3.org/2000/svg" xmlns:xlink="http://www.w3.org/1999/xlink" xml:space="preserve" version="1.1" style="shape-rendering:geometricPrecision;text-rendering:geometricPrecision;image-rendering:optimizeQuality;" viewBox="0 0 60000 75000" x="0px" y="0px" fill-rule="evenodd" clip-rule="evenodd"><defs><style type="text/css">
   
    .fil0 {fill:black;fill-rule:nonzero}
   
  </style></defs><g><path class="fil0" d="M29096 41765l78 -23106c-171,-27 -347,-62 -531,-106 -1781,-365 -3439,-1012 -5104,-1661 -3737,-1457 -7510,-2929 -12678,-1067l-3080 23391c5259,-2072 8768,-938 13184,490 1992,644 4173,1349 6786,1835l0 0c100,16 195,34 288,52 344,61 696,119 1056,171zm4364 2457l7 439c170,11 321,132 362,307 51,215 -82,430 -297,481 -1080,257 -2264,409 -3447,409 -1077,0 -2156,-126 -3157,-413 -212,-60 -335,-281 -275,-494 52,-181 220,-297 400,-290l-7 -439 -20180 -1c-8,0 -17,0 -25,-1l0 1c-839,-55 -1519,-228 -1965,-709 -448,-482 -618,-1225 -416,-2395l3355 -22885c2,-11 4,-21 6,-32 338,-2011 1378,-1891 2137,-1803l23 3 119 -900c13,-149 108,-284 257,-340 5570,-2095 9541,-546 13473,988 1869,729 3730,1455 5734,1758 149,15 295,23 441,24 359,2 726,-40 1147,-115 1803,-342 3498,-1003 5200,-1667 3932,-1534 7903,-3082 13473,-988 149,56 245,192 257,340l119 900 23 -3c763,-88 1808,-210 2142,1828l1 9 0 0 3173 22874 0 0c205,1174 35,1919 -414,2403 -446,480 -1126,654 -1965,709 -17,1 -34,1 -51,0l-19649 1zm-788 592l-10 -592 -2573 0 -2247 0 10 625c721,145 1476,211 2232,211 878,0 1756,-88 2587,-244zm-5049 -2485c-8,-1 -15,-3 -23,-4 -2660,-495 -4865,-1208 -6880,-1859 -4434,-1433 -7919,-2560 -13268,-250l0 -1c-64,27 -135,39 -209,29 -218,-28 -372,-229 -344,-447l2976 -22604 -9 -1c-442,-51 -1047,-121 -1261,1145l-2 12 -3355 22886 -2 9c-157,898 -65,1427 211,1724 278,300 784,413 1431,456l18482 1c-1709,-364 -3235,-801 -4665,-1210 -4458,-1277 -7974,-2284 -13188,119 -176,81 -302,-10 -393,-207 -71,-155 -168,-450 -233,-650 -25,-77 -45,-139 -54,-163l-4 -8c-54,-127 4,-274 131,-328 5601,-2419 9295,-1254 13962,218 2431,767 5130,1618 8496,2077 -95,-160 -205,-294 -340,-407 -266,-222 -645,-378 -1206,-491 -83,-15 -166,-30 -248,-45l-9 -1zm2190 131c104,113 195,236 277,369 82,-133 173,-256 277,-369 -39,-53 -66,-116 -75,-186 -3,-22 -4,-43 -3,-64l-79 -23487c-70,2 -139,3 -209,3 -10,0 -21,0 -31,0l-79 23484c1,21 0,43 -3,64 -9,70 -36,133 -75,186zm2616 -919l0 0c2614,-486 4795,-1191 6786,-1835 4416,-1428 7925,-2562 13184,-490l-3080 -23391c-5168,-1862 -8941,-391 -12678,1067 -1830,714 -3651,1424 -5635,1761l78 23112c360,-53 712,-110 1056,-171 92,-19 188,-36 288,-52zm151 783c-7,2 -15,3 -23,4l-9 1c-82,15 -165,30 -248,45 -561,113 -940,269 -1206,491 -92,77 -173,165 -246,264 3286,-456 5940,-1269 8336,-2004 4739,-1452 8485,-2599 14121,-165 127,54 185,201 131,328 -2,5 -4,9 -7,14l-16 39c-48,118 -152,369 -242,566 -137,298 -311,516 -511,424 -5214,-2403 -8730,-1396 -13188,-119 -1430,410 -2956,847 -4665,1210l18302 -1c647,-43 1153,-156 1431,-456 276,-297 368,-826 211,-1724l0 0 -2 -12 -3175 -22885c-212,-1276 -819,-1206 -1262,-1155l-9 1 2976 22604c28,218 -125,418 -344,447 -74,10 -145,-2 -209,-29l0 1c-5349,-2311 -8835,-1184 -13268,250 -2014,651 -4220,1364 -6880,1859zm-11800 -653c-4508,-1422 -8089,-2552 -13402,-326 44,134 100,305 149,436 5264,-2355 8823,-1336 13319,-49 471,135 952,273 1447,410 -517,-158 -1020,-317 -1512,-472zm32102 -347c-5346,-2236 -8976,-1124 -13552,278 -1742,534 -3620,1109 -5779,1561 2171,-395 4049,-933 5786,-1430 4464,-1279 8004,-2293 13207,-1 168,74 112,104 175,-33 57,-124 116,-262 164,-375z"/></g><text x="0" y="60015" fill="#000000" font-size="5px" font-weight="bold" font-family="'Helvetica Neue', Helvetica, Arial-Unicode, Arial, Sans-serif">Created by Olenka Panasovska</text><text x="0" y="60020" fill="#000000" font-size="5px" font-weight="bold" font-family="'Helvetica Neue', Helvetica, Arial-Unicode, Arial, Sans-serif">from the Noun Project</text></svg>