<svg xmlns="http://www.w3.org/2000/svg" xmlns:xlink="http://www.w3.org/1999/xlink" xml:space="preserve" version="1.1" style="shape-rendering:geometricPrecision;text-rendering:geometricPrecision;image-rendering:optimizeQuality;" viewBox="0 0 60000 75000" x="0px" y="0px" fill-rule="evenodd" clip-rule="evenodd"><defs><style type="text/css">
   
    .fil0 {fill:black;fill-rule:nonzero}
   
  </style></defs><g><path class="fil0" d="M30704 5545l27399 37237c130,178 92,428 -86,558 -12,9 -24,16 -36,23l-17746 11197c-46,33 -99,57 -158,69 -60,12 -120,9 -176,-5l-37755 -6980c-217,-40 -360,-247 -320,-464 12,-63 38,-120 74,-168l28122 -41443c56,-98 152,-172 271,-195 164,-32 324,41 411,173zm-3399 11201c51,-215 266,-348 481,-297 215,51 348,266 297,481l-434 1817 2254 452c217,43 357,254 314,470 -43,217 -254,357 -470,314l-4390 -880c-217,-43 -357,-254 -314,-470 43,-217 254,-357 470,-314l1351 271 440 -1844zm-4476 12222l1704 -3740 -2265 -454c-217,-43 -357,-254 -314,-470 43,-217 254,-357 470,-314l7011 1406 0 0 2379 423c217,38 363,245 325,463 -38,217 -245,363 -463,325l-1834 -326 -139 3912 1425 254c217,38 363,245 325,463 -38,217 -245,363 -463,325l-11482 -2043c-217,-38 -363,-245 -325,-463 38,-217 245,-363 463,-325l3182 566zm2507 -3580l-1696 3724 5271 938 139 -3917 -3714 -745zm-5521 15254l1093 -3758 -2652 -472c-217,-38 -363,-245 -325,-463 38,-217 245,-363 463,-325l14870 2646c217,38 363,245 325,463 -38,217 -245,363 -463,325l-11429 -2034 -1093 3758 6997 1245c217,38 363,245 325,463 -38,217 -245,363 -463,325l-1276 -227 -459 3469 4122 733c217,38 363,245 325,463 -38,217 -245,363 -463,325l-14870 -2646c-217,-38 -363,-245 -325,-463 38,-217 245,-363 463,-325l934 166 1232 -3331 -4553 -810c-217,-38 -363,-245 -325,-463 38,-217 245,-363 463,-325l7084 1260zm5127 5275l459 -3469 -7455 -1327 -1232 3331 8228 1464zm10394 -26508c-187,116 -433,58 -548,-130 -116,-187 -58,-433 130,-548l1099 -677 -646 -1484c-88,-202 4,-437 206,-525 202,-88 437,4 525,206l601 1381 625 -385c187,-116 433,-58 548,130 116,187 58,433 -130,548l-2410 1485zm4392 5050l1416 3252 1519 -936c187,-116 433,-58 548,130 116,187 58,433 -130,548l-3868 2383c-187,116 -433,58 -548,-130 -116,-187 -58,-433 130,-548l1662 -1024 -1416 -3252 -1944 1198c-187,116 -433,58 -548,-130 -116,-187 -58,-433 130,-548l3868 -2383c187,-116 433,-58 548,130 116,187 58,433 -130,548l-1238 763zm8828 14495l1446 3320 2436 -1501c187,-116 433,-58 548,130 116,187 58,433 -130,548l-10478 6456c-187,116 -433,58 -548,-130 -116,-187 -58,-433 130,-548l2487 -1532 -1446 -3320 -567 349c-187,116 -433,58 -548,-130 -116,-187 -58,-433 130,-548l3175 -1956 -1302 -2989 -1467 904c-187,116 -433,58 -548,-130 -116,-187 -58,-433 130,-548l3868 -2383c187,-116 433,-58 548,130 116,187 58,433 -130,548l-1715 1057 1302 2989 3078 -1896c187,-116 433,-58 548,130 116,187 58,433 -130,548l-817 504zm760 3743l-1446 -3320 -4183 2577 1446 3320 4183 -2577zm-18205 -35252l9168 46143 16926 -10679 -26094 -35464zm8383 46292l-9330 -46960 -27273 40192 36604 6767z"/></g><text x="0" y="60015" fill="#000000" font-size="5px" font-weight="bold" font-family="'Helvetica Neue', Helvetica, Arial-Unicode, Arial, Sans-serif">Created by Olenka Panasovska</text><text x="0" y="60020" fill="#000000" font-size="5px" font-weight="bold" font-family="'Helvetica Neue', Helvetica, Arial-Unicode, Arial, Sans-serif">from the Noun Project</text></svg>